<?xml version="1.0" encoding="utf-8"?>
<!-- Generator: Adobe Illustrator 15.1.0, SVG Export Plug-In . SVG Version: 6.00 Build 0)  -->
<!DOCTYPE svg PUBLIC "-//W3C//DTD SVG 1.1//EN" "http://www.w3.org/Graphics/SVG/1.1/DTD/svg11.dtd">
<svg version="1.1" id="Layer_1" xmlns="http://www.w3.org/2000/svg" xmlns:xlink="http://www.w3.org/1999/xlink" x="0px" y="0px"
	 width="189.766px" height="162px" viewBox="0 0 189.766 162" enable-background="new 0 0 189.766 162" xml:space="preserve">
<g>
	<defs>
		<rect id="SVGID_1_" width="189.766" height="162"/>
	</defs>
	<clipPath id="SVGID_2_">
		<use xlink:href="#SVGID_1_"  overflow="visible"/>
	</clipPath>
	<path clip-path="url(#SVGID_2_)" fill="#FFFFFF" d="M146.33,81c0,28.414-23.033,51.447-51.446,51.447
		c-28.415,0-51.448-23.033-51.448-51.447s23.034-51.447,51.448-51.447C123.297,29.553,146.33,52.586,146.33,81"/>
	
		<circle clip-path="url(#SVGID_2_)" fill="none" stroke="#FFFFFF" stroke-width="2" stroke-miterlimit="10" cx="94.883" cy="81" r="80"/>
	<path clip-path="url(#SVGID_2_)" fill="#CFD2FC" d="M157.373,112.41c-0.182-3.633-1.958-7.254-6.067-9.4
		c-0.07,0.811-0.196,1.558-0.361,2.256c-0.074-0.04-0.143-0.083-0.218-0.123c-0.046,0.535-0.115,1.043-0.195,1.539
		c-2.711,7.466-11.329,7.565-16.75,6.249c-6.679-1.621-14.695-9.859-20.362-14.332c-5.803-4.579-9.271-1.146-8.774,2.021
		c-0.414-0.341-0.822-0.671-1.219-0.984c-2.851-2.249-5.246-2.945-7.071-2.729l-0.001-0.001l-0.029,0.006
		c-0.275,0.034-0.539,0.088-0.788,0.163l-8.845,1.834l5.75,3.018c0.019,0.179,0.045,0.356,0.084,0.533
		c0.881,3.969,3.856,6.406,9.443,11.183c5.587,4.777,15.222,13.522,26.881,19.108l1.175,0.547
		c7.674,2.802,19.296,0.955,24.734-5.484C157.978,124.001,159.417,117.732,157.373,112.41"/>
	<path clip-path="url(#SVGID_2_)" fill="#4C4EFF" d="M178.461,91.292h-65.097c-5.507,0,0.404,11.983,19.188,13.441
		c3.641,0.281,6.581,1.126,8.923,2.349c9.736,5.085,8.992,16.795,4.031,22.669c-5.438,6.441-17.06,8.288-24.734,5.486l2.1,0.977
		c0.706,0.292,1.479,0.598,2.317,0.906c6.61,2.441,17.22,5.168,29.791,4.025c1.755-0.16,3.427-0.454,5.032-0.844l0.034,0.003
		l0.005-0.012c17.917-4.365,26.592-21.887,28.449-27.383C190.524,106.919,191.819,91.292,178.461,91.292"/>
	<path clip-path="url(#SVGID_2_)" fill="#8690FA" d="M145.507,129.751c4.962-5.874,5.704-17.584-4.031-22.669
		c-1.191,13.833-14.143,14.265-21.877,12.387c-8.341-2.024-18.351-12.311-25.425-17.894c-7.428-5.862-11.794-1.209-10.899,2.823
		c0.881,3.97,3.856,6.407,9.443,11.184c5.586,4.777,15.221,13.521,26.881,19.108l1.174,0.547
		C128.447,138.039,140.068,136.191,145.507,129.751"/>
	<path clip-path="url(#SVGID_2_)" fill="#CFD2FC" d="M93.442,65.088c0.276-0.035,0.539-0.089,0.787-0.163l8.845-1.834l-5.75-3.018
		c-0.019-0.178-0.045-0.357-0.084-0.533c-0.881-3.97-3.856-6.407-9.442-11.184c-5.587-4.777-15.222-13.521-26.881-19.108
		l-1.175-0.547c-7.675-2.801-19.296-0.954-24.735,5.486C31.788,38,30.349,44.268,32.393,49.59c0.182,3.633,1.958,7.253,6.068,9.4
		c0.07-0.811,0.195-1.557,0.36-2.256c0.074,0.04,0.143,0.083,0.218,0.122c0.046-0.535,0.115-1.043,0.196-1.538
		c2.71-7.465,11.328-7.565,16.749-6.249c6.68,1.621,14.697,9.86,20.363,14.332c5.802,4.579,9.271,1.147,8.774-2.021
		c0.415,0.34,0.822,0.67,1.219,0.983c2.85,2.249,5.247,2.947,7.071,2.729l0.001,0.002L93.442,65.088z"/>
	<path clip-path="url(#SVGID_2_)" fill="#4C4EFF" d="M11.305,70.708h65.097c5.506,0-0.405-11.983-19.189-13.441
		c-3.641-0.282-6.581-1.126-8.923-2.349c-9.736-5.085-8.992-16.795-4.031-22.669c5.438-6.441,17.06-8.288,24.734-5.486l-2.099-0.977
		c-0.706-0.292-1.479-0.597-2.318-0.906c-6.61-2.441-17.219-5.168-29.791-4.025c-1.755,0.16-3.426,0.454-5.032,0.843l-0.034-0.003
		l-0.005,0.012C11.797,26.072,3.122,43.594,1.265,49.09C-0.759,55.081-2.054,70.708,11.305,70.708"/>
	<path clip-path="url(#SVGID_2_)" fill="#8690FA" d="M44.259,32.249c-4.961,5.874-5.704,17.584,4.032,22.669
		c1.191-13.833,14.142-14.264,21.877-12.386c8.34,2.024,18.35,12.31,25.424,17.893c7.428,5.862,11.795,1.209,10.9-2.823
		c-0.882-3.97-3.856-6.407-9.443-11.184c-5.586-4.777-15.221-13.521-26.881-19.108l-1.174-0.547
		C61.319,23.962,49.698,25.809,44.259,32.249"/>
</g>
</svg>
