<?xml version="1.0" encoding="utf-8"?>
<!-- Generator: Adobe Illustrator 15.1.0, SVG Export Plug-In . SVG Version: 6.00 Build 0)  -->
<!DOCTYPE svg PUBLIC "-//W3C//DTD SVG 1.1//EN" "http://www.w3.org/Graphics/SVG/1.1/DTD/svg11.dtd">
<svg version="1.1" id="Layer_1" xmlns="http://www.w3.org/2000/svg" xmlns:xlink="http://www.w3.org/1999/xlink" x="0px" y="0px"
	 width="893.912px" height="220.878px" viewBox="0 0 893.912 220.878" enable-background="new 0 0 893.912 220.878"
	 xml:space="preserve">
<g>
	<defs>
		<path id="SVGID_1_" d="M170.568,4.149c-14.226,4.348-25.239,11.701-37.125,20.562c0,0-13.75,10.25-33.999,43.001
			c0,0,37.568-0.026,87.355,21.077c16.563-10.947,30.512-20.132,32.144-21.091c4.251-2.5,54.5-34.75,54.5-34.75
			c-6.25-8.237-35.847-23.354-56.109-29.906C210.81,0.931,203.941,0,197.029,0C188.069,0,179.034,1.563,170.568,4.149"/>
	</defs>
	<clipPath id="SVGID_2_">
		<use xlink:href="#SVGID_1_"  overflow="visible"/>
	</clipPath>
	
		<linearGradient id="SVGID_3_" gradientUnits="userSpaceOnUse" x1="0" y1="220.9189" x2="1" y2="220.9189" gradientTransform="matrix(80.3169 67.3938 67.3938 -80.3169 -14714.8701 17777.2617)">
		<stop  offset="0" style="stop-color:#252526"/>
		<stop  offset="0.3808" style="stop-color:#717275"/>
		<stop  offset="0.7883" style="stop-color:#4B4B4D"/>
		<stop  offset="1" style="stop-color:#4B4B4D"/>
	</linearGradient>
	<polygon clip-path="url(#SVGID_2_)" fill="url(#SVGID_3_)" points="171.336,-85.678 317.163,36.686 201.551,174.467 55.724,52.104 
			"/>
</g>
<g>
	<defs>
		<path id="SVGID_4_" d="M218.943,67.698c-1.632,0.959-15.581,10.144-32.144,21.091c-26.564,17.56-59.856,39.659-59.856,39.659
			c-8.76,6.629-37.909,21.321-40.97,22.859c2.153,28.461,10.616,43.825,36.095,62.153l-5.456-2.963l0.331,0.2
			c11.684,7.551,23.652,10.148,34.534,10.18h0.383c23.161-0.063,41.333-11.68,41.333-11.68c16.501-5.5,58.5-32.75,66.5-39.25
			s7.75-15.5,7.75-15.5l6-121.5C273.443,32.948,223.194,65.198,218.943,67.698"/>
	</defs>
	<clipPath id="SVGID_5_">
		<use xlink:href="#SVGID_4_"  overflow="visible"/>
	</clipPath>
	
		<linearGradient id="SVGID_6_" gradientUnits="userSpaceOnUse" x1="0" y1="220.9541" x2="1" y2="220.9541" gradientTransform="matrix(167.0389 -60.7972 -60.7972 -167.0389 13512.5508 37071.4531)">
		<stop  offset="0" style="stop-color:#7F8083"/>
		<stop  offset="0.617" style="stop-color:#DCDDDE"/>
		<stop  offset="0.9775" style="stop-color:#DDDEE0"/>
		<stop  offset="1" style="stop-color:#DDDEE0"/>
	</linearGradient>
	<polygon clip-path="url(#SVGID_5_)" fill="url(#SVGID_6_)" points="25.573,54.932 251.513,-27.304 333.842,198.895 107.903,281.13 
			"/>
</g>
<g>
	<defs>
		<path id="SVGID_7_" d="M161.771,6.854c-0.734,0.303-1.476,0.556-2.207,0.887c-4.589,2.077-9.104,4.294-13.577,6.606
			c-6.338,3.277-12.631,6.636-18.933,9.982c-6.494,3.447-12.978,6.912-19.445,10.413c-5.234,2.834-10.461,5.681-15.693,8.52
			c-2.035,1.104-4.067,2.213-6.097,3.325L34.693,75.461C19.444,82.462,9.444,94.962,9.444,94.962
			C2.453,104.019,0.005,113.019,0,121.178v0.038c0.004,18.962,13.193,33.371,13.193,33.371l43.501,23.374l59.918,32.537l5.456,2.963
			c-25.479-18.328-33.942-33.692-36.095-62.153c-0.521-6.864-0.677-14.48-0.612-23.097c0.332-44.334,19.832-69.665,19.832-69.665
			c30.625-47.085,72.369-56.174,72.369-56.174C171.642,2.913,161.771,6.854,161.771,6.854"/>
	</defs>
	<clipPath id="SVGID_8_">
		<use xlink:href="#SVGID_7_"  overflow="visible"/>
	</clipPath>
	
		<linearGradient id="SVGID_9_" gradientUnits="userSpaceOnUse" x1="0" y1="220.8779" x2="1" y2="220.8779" gradientTransform="matrix(0 178.0106 178.0106 0 -39229.8242 13.3846)">
		<stop  offset="0" style="stop-color:#7C7D80"/>
		<stop  offset="0.0098" style="stop-color:#7C7D80"/>
		<stop  offset="0.2015" style="stop-color:#8F9193"/>
		<stop  offset="0.3592" style="stop-color:#8F9193"/>
		<stop  offset="0.4572" style="stop-color:#8E9093"/>
		<stop  offset="0.731" style="stop-color:#7F8184"/>
		<stop  offset="1" style="stop-color:#000000"/>
	</linearGradient>
	<rect y="2.372" clip-path="url(#SVGID_8_)" fill="url(#SVGID_9_)" width="177.562" height="211.089"/>
</g>
<g>
	<defs>
		<rect id="SVGID_10_" width="893.912" height="220.878"/>
	</defs>
	<clipPath id="SVGID_11_">
		<use xlink:href="#SVGID_10_"  overflow="visible"/>
	</clipPath>
	<path clip-path="url(#SVGID_11_)" d="M407.193,50.19h-86c-5.523,0-10,4.477-10,10s4.477,10,10,10h31.5v88.75
		c0,6.489,5.261,11.75,11.75,11.75c6.489,0,11.75-5.261,11.75-11.75V70.19h31c5.523,0,10-4.477,10-10S412.716,50.19,407.193,50.19"
		/>
	<path clip-path="url(#SVGID_11_)" d="M512.272,150.559l-25.966-33.004c11.498-2.53,28.404-7.347,29.387-34.365
		c1-27.5-34-32.459-34-32.459h-36.515c-1.099-0.35-2.27-0.541-3.485-0.541c-6.351,0-11.5,5.149-11.5,11.5v97.5
		c0,6.351,5.149,11.5,11.5,11.5c6.352,0,11.5-5.149,11.5-11.5v-90h23.768c0,0,14.732,0.5,14.732,15.02c0,14.521-12,17.98-12,17.98
		l-9.538,2.18c-2.535-0.283-4.987,0.226-7.014,1.603l-0.948,0.217l0.195,0.346c-4.848,4.067-4.787,12.359,0.205,18.705l31.294,39.78
		c5.069,6.444,13.295,8.431,18.371,4.437C517.336,165.464,517.342,157.003,512.272,150.559"/>
	<path clip-path="url(#SVGID_11_)" d="M644.956,155.983L606.5,60.402c-0.272-0.95-0.636-1.861-1.093-2.718l-0.013-0.033
		l-0.002,0.002c-2.379-4.441-7.061-7.463-12.449-7.463c-5.708,0-10.613,3.395-12.838,8.27l-0.008-0.007l-0.066,0.159
		c-0.07,0.16-0.135,0.322-0.199,0.484l-40.089,96.888c-2.184,5.521,0.522,11.767,6.044,13.949
		c5.521,2.185,11.766-0.521,13.949-6.044l9.372-23.699h46.482l9.372,23.699c2.184,5.522,8.428,8.229,13.949,6.044
		C644.434,167.75,647.14,161.505,644.956,155.983 M576.688,121.022l15.661-39.602l15.661,39.602H576.688z"/>
	<path clip-path="url(#SVGID_11_)" d="M784.026,50.19h-24.833l-28,93l-29-93h-25.5c-5.615,0-10.167,4.552-10.167,10.167v100.166
		c0,5.614,4.552,10.167,10.167,10.167s10.167-4.553,10.167-10.167V75.44l29.083,88.75c0,2.97,6.324,5.375,14.125,5.375
		s14.125-2.405,14.125-5.375h0.25l29.416-88.5v84.833c0,5.614,4.552,10.167,10.167,10.167s10.167-4.553,10.167-10.167V60.357
		C794.193,54.742,789.642,50.19,784.026,50.19"/>
	<path clip-path="url(#SVGID_11_)" d="M838.926,80.283c0.392-3.927,2.925-7.653,6.53-9.366c1.87-0.89,4.182-1.427,6.237-1.632
		c12.5-1.25,25,3.25,28,4.25s9.611-0.25,12-2.75s4.874-12-4.25-15.75s-10.5-5.25-27.5-6s-33.25,8.75-33.25,8.75s-13.5,7.75-12.5,25
		s11.75,26.5,21.75,31.25c10,4.75,37,15.75,33.5,27.5s-14.75,12-34,8.75c0,0-12.25-4.75-16.75-1.25s-7.625,12.25,1.5,17.5
		s38.5,7.5,48.5,2.75s30.75-12.25,23.5-43.25c0,0-1.75-11.5-30-26.25c-5.582-2.914-11.199-5.813-16.592-9.069
		c-1.946-1.174-4.475-2.651-5.577-4.717C839.058,84.187,838.733,82.211,838.926,80.283"/>
</g>
</svg>
